<?xml version="1.0" standalone="no"?><!DOCTYPE svg PUBLIC "-//W3C//DTD SVG 1.1//EN" "http://www.w3.org/Graphics/SVG/1.1/DTD/svg11.dtd"><svg t="1481544795680" class="icon" style="" viewBox="0 0 1024 1024" version="1.1" xmlns="http://www.w3.org/2000/svg" p-id="1469" xmlns:xlink="http://www.w3.org/1999/xlink" width="200" height="200"><defs><style type="text/css"></style></defs><path d="M947.648 58.176 76.352 58.176c-40.128 0-72.64 32.512-72.64 72.64l0 617.216c0 40.128 32.512 72.64 72.64 72.64L411.52 820.672c-57.472 31.68-99.2 72.64-99.2 72.64-30.08 0-54.464 16.256-54.464 36.288 0 20.032 24.384 36.288 54.464 36.288l435.648 0c30.08 0 54.464-16.256 54.464-36.288 0-20.032-24.384-36.288-54.464-36.288 0 0-40.576-40.896-96.832-72.64l296.512 0c40.128 0 72.64-32.512 72.64-72.64L1020.288 130.816C1020.288 90.688 987.776 58.176 947.648 58.176zM947.648 530.176c0 40.128-32.512 72.64-72.64 72.64L148.928 602.816c-40.128 0-72.64-32.512-72.64-72.64L76.288 203.392c0-40.128 32.512-72.64 72.64-72.64l726.144 0c40.128 0 72.64 32.512 72.64 72.64L947.712 530.176z" p-id="1470"></path></svg>