<?xml version="1.0" standalone="no"?><!DOCTYPE svg PUBLIC "-//W3C//DTD SVG 1.1//EN" "http://www.w3.org/Graphics/SVG/1.1/DTD/svg11.dtd"><svg t="1481719063061" class="icon" style="" viewBox="0 0 1024 1024" version="1.1" xmlns="http://www.w3.org/2000/svg" p-id="2516" xmlns:xlink="http://www.w3.org/1999/xlink" width="200" height="200"><defs><style type="text/css"></style></defs><path d="M626.103758 70.643943 366.446973 70.643943c-131.74658 0-241.573941 97.04115-241.573941 203.949019 0 109.279892 72.204485 196.279339 196.156542 196.279339 8.522094 0 16.925485-0.48607 25.083282-1.096984-8.036024 15.465227-13.757329 32.692586-13.757329 50.591235 0 30.320563 16.678868 47.671743 37.257555 67.821665-15.525602 0-30.56104 0.366344-47.058782 0.366344-150.801565 0-256.429277 103.739712-256.429277 203.402573 0 98.138134 127.299291 159.566182 278.163277 159.566182 171.926698 0 277.676184-97.652064 277.676184-195.790198 0-78.718853-16.986883-118.232798-100.819197-181.057659-24.047696-18.081821-76.405157-55.159274-76.405157-79.938634 0-29.039383 8.280594-43.470047 52.111868-77.68429 44.868907-35.127032 76.711126-81.335447 76.711126-138.807393 0-62.46261-25.51-119.263268-73.665767-146.780994l68.124564 0L626.103758 70.643943zM538.068725 738.928383c2.130524 9.009188 3.28686 18.324344 3.28686 27.944446 0 79.2039-51.016931 141.120065-197.6168 141.120065-104.288205 0-179.598424-65.872267-179.598424-145.199986 0-77.621868 88.336908-144.773268 192.623066-143.617955 24.292266 0.305969 47.001477 4.264117 67.517743 10.960633C480.964146 669.400866 526.563694 693.937702 538.068725 738.928383zM371.133715 431.115831c-70.073962-2.130524-136.555096-66.360384-148.547221-158.106947-12.178367-91.928712 34.82311-162.308643 104.775298-160.236448 69.952188 2.191922 129.798205 77.561493 141.912104 169.429831C481.268068 374.072651 441.023482 433.248402 371.133715 431.115831z" p-id="2517"></path><path d="M838.440817 190.396351 838.440817 70.643943 778.534426 70.643943 778.534426 190.396351 658.904815 190.396351 658.904815 250.240321 778.534426 250.240321 778.534426 370.054127 838.440817 370.054127 838.440817 250.240321 958.254623 250.240321 958.254623 190.396351Z" p-id="2518"></path></svg>