<?xml version="1.0" standalone="no"?><!DOCTYPE svg PUBLIC "-//W3C//DTD SVG 1.1//EN" "http://www.w3.org/Graphics/SVG/1.1/DTD/svg11.dtd"><svg t="1481719238912" class="icon" style="" viewBox="0 0 1024 1024" version="1.1" xmlns="http://www.w3.org/2000/svg" p-id="5411" xmlns:xlink="http://www.w3.org/1999/xlink" width="200" height="200"><defs><style type="text/css"></style></defs><path d="M618.858 710.825v120.567q0 38.288-22.27 38.288-13.128 0-25.708-12.58v-171.983q12.58-12.58 25.708-12.58 22.27 0 22.27 38.288zM811.978 711.41v26.293h-51.416v-26.293q0-38.836 25.708-38.836t25.708 38.836zM260.008 586.856h61.143v-53.72h-178.273v53.72h60.009v325.133h57.157v-325.133zM424.568 911.99h50.867v-282.275h-50.867v215.975q-17.151 23.989-32.583 23.989-10.276 0-11.995-11.995-0.585-1.719-0.585-20.003v-208.003h-50.867v223.399q0 28.012 4.571 41.725 6.838 21.137 33.131 21.137 27.427 0 58.291-34.85v30.864zM669.689 827.406v-112.559q0-41.725-5.156-56.572-9.727-31.998-40.555-31.998-28.56 0-53.134 30.864v-124.005h-50.867v378.816h50.867v-27.427q25.708 31.413 53.134 31.413 30.864 0 40.555-31.413 5.156-15.432 5.156-57.157zM862.845 821.701v-7.423h-52.001q0 29.145-1.134 34.85-3.986 20.552-22.856 20.552-26.293 0-26.293-39.421v-49.697h102.283v-58.839q0-45.126-15.432-66.299-22.27-29.145-60.558-29.145-38.836 0-61.143 29.145-16.017 21.137-16.017 66.299v98.846q0 45.126 16.566 66.299 22.27 29.145 61.692 29.145 41.14 0 61.692-30.279 10.276-15.432 11.995-30.864 1.134-5.156 1.134-33.131zM515.441 300.011v-119.982q0-39.421-24.574-39.421t-24.574 39.421v119.982q0 40.006 24.574 40.006t24.574-40.006zM926.255 729.146q0 133.696-14.847 199.995-8.009 33.716-33.131 56.572t-58.291 26.293q-105.135 11.995-317.125 11.995t-317.125-11.995q-33.131-3.437-58.583-26.293t-32.839-56.572q-14.847-63.995-14.847-199.995 0-133.696 14.847-199.995 8.009-33.716 33.131-56.572t58.839-26.842q104.55-11.446 316.54-11.446t317.125 11.446q33.131 3.986 58.583 26.842t32.839 56.572q14.847 63.995 14.847 199.995zM356.001 0.037h58.291l-69.152 227.97v154.832h-57.157v-154.832q-8.009-42.274-34.85-121.152-21.137-58.839-37.154-106.854h60.558l40.555 150.261zM567.442 190.304v99.979q0 46.296-16.017 67.433-21.137 29.145-60.558 29.145-38.288 0-60.009-29.145-16.017-21.722-16.017-67.433v-99.979q0-45.711 16.017-66.848 21.722-29.145 60.009-29.145 39.421 0 60.558 29.145 16.017 21.137 16.017 66.848zM758.843 97.748v285.127h-52.001v-31.413q-30.279 35.435-58.839 35.435-26.293 0-33.716-21.137-4.571-13.713-4.571-42.859v-225.118h52.001v209.686q0 18.87 0.585 20.003 1.719 12.58 11.995 12.58 15.432 0 32.583-24.574v-217.694h52.001z" p-id="5412"></path></svg>